<svg width="27" height="27" viewBox="0 0 27 27" fill="none" xmlns="http://www.w3.org/2000/svg">
<path d="M13.0858 25.8475C19.8319 25.8475 25.3006 20.3787 25.3006 13.6326C25.3006 6.88656 19.8319 1.41779 13.0858 1.41779C6.33972 1.41779 0.870941 6.88656 0.870941 13.6326C0.870941 20.3787 6.33972 25.8475 13.0858 25.8475Z" fill="#FFC141" stroke="#005231" stroke-width="1.57257"/>
<path d="M25.3006 13.6326V12.8464H24.5144C21.7877 12.8464 20.2623 12.1673 19.3399 11.2802C18.3987 10.375 17.9601 9.1383 17.6486 7.74659C17.5548 7.32781 17.4806 6.93782 17.4054 6.54266C17.3508 6.25553 17.2956 5.96568 17.232 5.66006C17.0904 4.97892 16.9185 4.28653 16.6461 3.67143C16.3703 3.04848 15.9751 2.4668 15.3663 2.04755C14.7537 1.6257 13.9968 1.41779 13.0858 1.41779C12.1748 1.41779 11.4179 1.6257 10.8053 2.04755C10.1965 2.4668 9.80131 3.04848 9.52547 3.67143C9.25309 4.28653 9.08119 4.97892 8.93955 5.66006C8.87599 5.96568 8.82082 6.25553 8.76618 6.54266C8.69097 6.93782 8.61674 7.32781 8.52299 7.74659C8.21145 9.1383 7.77287 10.375 6.83172 11.2802C5.90932 12.1673 4.38385 12.8464 1.65723 12.8464H0.870941V13.6326C0.870941 20.3787 6.33972 25.8475 13.0858 25.8475C19.8319 25.8475 25.3006 20.3787 25.3006 13.6326Z" fill="#01BE72" stroke="#005231" stroke-width="1.57257"/>
<path d="M9.7458 15.7087C9.7458 15.7087 9.99634 15.8398 9.99634 15.9192C9.99634 15.9745 9.92524 16.0228 9.86092 16.0504C9.79659 16.078 9.74919 16.1333 9.74242 16.2023L9.71533 16.406L11.3777 18.9053L11.9668 19.1573L13.2805 17.7316L12.4476 15.5084L10.88 15.4705L9.7458 15.7087Z" fill="#005231"/>
<path d="M10.8455 16.1022C11.7427 16.3128 12.2472 17.4831 11.9695 18.7189C11.6919 19.9513 10.7405 20.7833 9.83994 20.5727C8.94274 20.3622 8.43827 19.1919 8.7159 17.956C8.99352 16.7201 9.94829 15.8916 10.8455 16.1022Z" fill="#005231"/>
<path d="M16.1103 17.1621C15.9376 18.0562 15.3586 18.7086 14.7018 18.5947C14.0484 18.4808 13.6556 17.6626 13.8283 16.7651C14.001 15.871 14.6713 15.2392 15.3282 15.3532C15.9816 15.4671 16.2829 16.268 16.1103 17.1621Z" fill="#005231"/>
<path d="M15.9583 17.1586C15.8262 17.8352 15.5046 18.353 15.1829 18.2978C14.8613 18.2426 14.7089 17.6419 14.841 16.9653C14.973 16.2887 15.3353 15.7847 15.6569 15.8399C15.9786 15.8951 16.0903 16.482 15.9583 17.1586Z" fill="#01BE72"/>
<path d="M11.2557 16.627C12.6134 17.1241 11.4318 20.4864 10.0741 19.9893C8.71649 19.4922 9.89809 16.1298 11.2557 16.627Z" fill="#01BE72"/>
<path d="M11.7096 18.6051C11.4083 19.5406 10.6973 20.1689 10.1217 20.0101C9.9355 19.9583 9.78315 19.8271 9.6748 19.6407C9.70189 19.6511 9.73236 19.6545 9.76283 19.6614C10.3282 19.7719 10.9478 19.1505 11.1442 18.2668C11.2965 17.5694 11.1442 16.9204 10.7921 16.6236C10.9343 16.5787 11.0765 16.5752 11.2119 16.6132C11.7875 16.7755 12.0143 17.6661 11.713 18.6016L11.7096 18.6051Z" fill="#005231"/>
<path d="M15.4808 14.7214L15.4673 14.9941L16.4491 15.0459L16.3983 14.4521L15.9244 14.4452L15.4808 14.7214Z" fill="#005231"/>
<path d="M16.3639 13.5199C16.3097 13.6787 16.1336 14.1448 16.0964 14.2449L16.0253 14.3277L15.7375 14.2035L15.4531 13.4336L15.5175 13.3784C15.5175 13.3784 15.6529 13.223 15.9271 13.2265C16.0659 13.2265 16.1946 13.2369 16.286 13.2679C16.3334 13.3128 16.4045 13.4026 16.3639 13.5234V13.5199Z" fill="#005231"/>
<path d="M15.6763 15.5498L15.7778 15.7086L16.0622 15.7225L16.1469 14.5004L15.683 14.5073L15.6763 15.5498Z" fill="#005231"/>
<path d="M15.0405 14.9803L16.1341 14.5005L16.1443 14.4659C16.1646 14.3831 16.0935 14.3037 16.0021 14.3037H15.8192L15.2267 14.7041L15.0405 14.9838V14.9803Z" fill="#005231"/>
<path d="M15.0464 13.5786L15.5204 13.3819L15.7032 13.3991C15.93 13.4164 16.1027 13.5924 16.1027 13.7996L16.0621 14.1448C16.0553 14.1931 16.035 14.2345 15.9978 14.2691L15.886 14.3761L15.1649 14.8456L15.0464 13.5786Z" fill="#005231"/>
<path d="M13.5987 11.1104L16.0025 11.2416L15.884 13.7858L13.5547 13.5097L13.5987 11.1104Z" fill="#01BE72"/>
<path d="M17.0949 13.1024L15.8828 13.7859L16.0013 11.2417L17.2405 10.7756L17.0949 13.1024Z" fill="#005231"/>
<path d="M13.5986 11.1103L14.9631 10.6719L17.2416 10.7755L16.0025 11.2415L13.5986 11.1103Z" fill="#005231"/>
<path d="M17.2177 11.1657L15.9819 11.649L16.0022 11.2416L17.2414 10.7722L17.2177 11.1657Z" fill="#01BE72"/>
<path d="M15.8229 15.4566L14.8241 17.5555C14.7699 17.6729 14.8275 17.811 14.9527 17.8628C15.0814 17.9146 15.2304 17.8593 15.2845 17.7385L16.2393 15.5913L15.8229 15.4566Z" fill="#005231"/>
<path d="M14.8922 16.7375C14.8922 16.7375 14.9192 17.1068 14.8955 17.2277C14.8718 17.3485 14.7026 17.528 14.7161 17.6523C14.7432 17.8801 15.0682 17.8283 15.1664 17.7938C15.5219 17.6661 15.5524 17.3588 15.5524 17.3588L15.6302 17.2139C15.6539 17.1655 15.6539 17.1103 15.6336 17.062L15.4203 16.5925L14.8955 16.7409L14.8922 16.7375Z" fill="white"/>
<path d="M15.5458 13.627C15.5458 13.627 15.8945 14.2242 15.0244 15.0976C14.9804 15.1425 14.9736 15.2047 15.0007 15.2599C15.1091 15.4601 15.363 15.9331 15.3901 16.0919C15.4273 16.299 15.5018 16.5924 15.5018 16.5924C15.5018 16.5924 15.3799 16.9135 14.8585 16.8064C14.8585 16.8064 14.3947 15.8088 14.2119 15.5119C13.9816 15.1425 14.0155 14.9285 14.1272 14.7386L13.6871 14.2104L13.5923 13.4095L15.5424 13.6236L15.5458 13.627Z" fill="#005231"/>
<path d="M12.4506 11.6938L12.2711 11.787L11.8852 12.1426C11.8852 12.1426 11.8852 12.1875 11.6888 12.2358C11.4924 12.2841 11.1606 12.7433 11.1606 12.7433L11.7125 13.016L12.7688 12.146L12.454 11.6938H12.4506Z" fill="#005231"/>
<path d="M12.271 11.7871C12.271 11.7871 12.5317 11.2002 12.8702 11.1726C13.2088 11.145 14.475 10.9585 14.475 10.9585C14.475 10.9585 14.6782 10.9033 14.8779 11.0517C15.0777 11.2002 15.1454 11.2969 15.2571 11.7663C15.2571 11.7663 15.2978 12.1633 15.3282 12.3014C15.3519 12.4015 15.4772 12.8123 15.5009 13.2542C15.5009 13.2542 15.5348 13.5097 15.6025 13.6892C15.6702 13.8687 15.6059 13.8445 15.6059 13.8445C15.6059 13.8445 15.6533 13.5822 14.5631 13.5891C13.4695 13.596 13.3375 13.5787 13.3375 13.5787L13.439 13.344C13.439 13.344 13.3375 13.1092 13.3815 12.9642C13.3815 12.9642 12.9041 12.3739 12.8939 12.077L12.772 12.191C12.772 12.191 12.5046 11.8078 12.2676 11.7871H12.271Z" fill="#FFC141"/>
<path d="M14.2959 14.5452L14.1267 14.8836C14.1267 14.8836 14.13 14.8594 14.1097 14.8249C14.086 14.7765 14.0217 14.7213 13.8897 14.7144C13.7339 14.704 13.2362 14.6833 12.9484 14.673C12.8232 14.6661 12.7385 14.6626 12.7385 14.6626L12.4338 14.3278L12.2611 14.1379L12.0986 13.9618C12.0986 13.9618 12.1325 13.9204 12.1867 13.8652C12.3424 13.696 12.6844 13.3681 12.901 13.3853C13.1922 13.4095 13.7712 13.3681 13.9066 13.6132C14.042 13.8548 14.4686 14.2035 14.2993 14.5452H14.2959Z" fill="#005231"/>
<path d="M13.0974 13.7686C13.0974 13.7686 13.0974 13.6995 13.0974 13.6374C13.0974 13.5649 13.1719 13.5165 13.2464 13.5338L13.6391 13.6374L13.331 14.1138C13.2803 14.1932 13.1787 14.2346 13.0805 14.2208C13.0805 14.2208 12.8841 14.1379 12.813 14.1241C12.7284 14.1069 12.4778 14.1241 12.4778 14.1241L12.3052 13.5994L12.3255 13.5304C12.339 13.4855 12.383 13.4579 12.4304 13.4579H12.5252L12.5422 13.3543C12.5489 13.3129 12.593 13.2853 12.6404 13.2956L12.8977 13.3508C12.9518 13.3647 12.9857 13.413 12.9755 13.4613L12.9281 13.6961L13.1008 13.7686H13.0974Z" fill="#005231"/>
<path d="M12.8333 14.604L12.4101 13.6892C12.3661 13.596 12.2408 13.5581 12.1494 13.6133L11.9463 13.7376L12.0919 14.4349L12.8333 14.604Z" fill="#005231"/>
<path d="M13.0258 14.5141L12.9446 14.6729L12.8633 14.8455C12.8396 14.8904 12.8024 14.9249 12.7516 14.9422C12.6534 14.9802 12.4604 15.0492 12.2234 15.1355C11.8341 15.2736 11.3161 15.4462 10.8319 15.5774C10.3004 15.7224 9.81283 15.819 9.59615 15.7604C9.15262 15.643 9.35576 15.0527 9.44041 14.6419C9.60292 13.8755 10.0295 13.4474 10.1886 13.3093C10.2259 13.2783 10.2733 13.2576 10.3241 13.2507L12.3724 13.0401C12.3724 13.0401 12.1286 13.4267 12.1794 13.8651C12.1896 13.9514 12.2099 14.0343 12.2471 14.1206C12.2471 14.1275 12.2505 14.1309 12.2539 14.1378C12.2945 14.2242 12.3589 14.2863 12.43 14.3277C12.5959 14.4278 12.8125 14.4313 12.948 14.4209C13.0021 14.4175 13.0428 14.4693 13.0225 14.5141H13.0258Z" fill="#005231"/>
<path d="M10.7849 17.8939C11.1675 17.9733 10.9948 18.8294 10.6122 18.75C10.2297 18.6706 10.4057 17.8145 10.7849 17.8939Z" fill="#005231"/>
<path d="M11.8957 15.933L10.9071 18.3461C10.8936 18.3806 10.8902 18.4151 10.8969 18.4531L10.9003 18.4704C10.9071 18.5118 10.9477 18.5463 10.9917 18.5532L11.1949 18.5843C11.2524 18.5912 11.31 18.5601 11.3269 18.5083L12.0819 15.9952L11.8957 15.933Z" fill="#005231"/>
<path d="M11.3061 18.3081C11.3806 18.3323 11.3129 18.5636 11.2384 18.5394C11.1639 18.5187 11.2316 18.2874 11.3061 18.3081Z" fill="#005231"/>
<path d="M9.68408 16.3784L10.0633 16.1471L10.6558 16.3163L10.798 18.2426C10.8014 18.2874 10.8352 18.3254 10.8826 18.3358L10.9639 18.353L11.9389 16.0228L10.1987 15.9814L9.68408 16.3784Z" fill="#005231"/>
<path d="M10.8016 18.2081C10.9404 18.215 10.9268 18.4566 10.788 18.4497C10.6492 18.4394 10.6627 18.1977 10.8016 18.2081Z" fill="#005231"/>
<path d="M16.4256 13.4234C16.4154 13.5305 16.4019 13.7169 16.3917 13.8273C16.385 13.886 16.3646 13.9413 16.324 13.9896L16.0972 14.2485C16.1344 14.1484 16.3105 13.6789 16.3646 13.5236C16.4053 13.4062 16.3308 13.313 16.2834 13.2681C16.3748 13.2957 16.4357 13.3475 16.4256 13.4269V13.4234Z" fill="#005231"/>
<path d="M12.9211 17.6005C12.9211 17.6005 12.6367 17.6799 12.6197 17.8698C12.6028 18.0596 12.5622 18.3462 12.2846 18.5257C12.0069 18.7052 11.9663 19.1574 11.9663 19.1574L13.9774 18.4911C13.9774 18.4911 14.597 18.36 14.7256 17.9146C14.7324 17.8974 14.7053 17.8836 14.6884 17.8939L14.6207 17.9353L14.6376 17.7455L13.7946 17.4072C13.7946 17.4072 13.9909 17.2967 13.886 16.7961L12.9211 17.6005Z" fill="#005231"/>
<path d="M14.1466 16.1298C14.1466 16.1298 13.5575 17.9456 12.7991 18.1389C12.7991 18.1389 13.026 16.8202 12.3285 16.2817C11.7326 15.8226 11.0284 15.6223 10.832 15.574C10.7982 15.5671 10.7812 15.5602 10.7812 15.5602L11.6311 15.2184C11.6311 15.2184 11.8816 15.1701 12.2236 15.1321C12.8127 15.0734 13.6828 15.0527 14.0823 15.391C14.1669 15.4635 14.2143 15.5429 14.238 15.6223C14.3159 15.8743 14.1466 16.1298 14.1466 16.1298Z" fill="#005231"/>
<path d="M14.2415 15.6224C14.2178 15.543 14.1704 15.467 14.0858 15.3945C13.6863 15.0562 12.8162 15.0769 12.2271 15.1356C12.464 15.0528 12.657 14.9803 12.7552 14.9423C12.8026 14.925 12.8432 14.8905 12.8669 14.8456L12.9482 14.673C13.236 14.6868 13.7371 14.7076 13.8928 14.7145C14.0248 14.7214 14.0824 14.7801 14.1095 14.8284C14.0858 14.9768 14.0689 15.2047 14.1806 15.3635C14.2686 15.4912 14.2686 15.5706 14.2449 15.6224H14.2415Z" fill="#005231"/>
<path d="M8.67894 12.764L9.42379 12.833C9.42379 12.833 9.61338 12.8054 9.3256 12.4637C9.03782 12.1185 8.61461 11.9804 8.47241 12.1081C8.33021 12.2393 8.44532 12.5914 8.67894 12.764Z" fill="#005231"/>
<path d="M9.16012 12.6812L9.68152 12.7123L9.67475 12.802L9.15674 12.7709L9.16012 12.6812Z" fill="#005231"/>
<path d="M10.1485 13.7168L10.0673 13.7479L9.59668 12.7433L9.68132 12.7122L10.1485 13.7168Z" fill="#005231"/>
<path d="M13.5645 13.0852L12.8163 13.061C12.8163 13.061 12.63 13.0161 12.9585 12.7089C13.2869 12.4016 13.7202 12.3119 13.8489 12.4569C13.9775 12.6019 13.8218 12.9402 13.5679 13.0852H13.5645Z" fill="#005231"/>
<path d="M13.0903 13.0297L12.5723 12.9987L12.5757 12.9055L13.097 12.9365L13.0903 13.0297Z" fill="#005231"/>
<path d="M11.9937 13.8445L12.0715 13.8859L12.6572 12.9504L12.5794 12.9089L11.9937 13.8445Z" fill="#005231"/>
<path d="M16.0393 15.5002C16.3238 15.578 16.3172 15.603 16.0327 15.5252C15.7482 15.4474 15.7548 15.4224 16.0393 15.5002Z" stroke="#005231" stroke-width="0.228207" stroke-miterlimit="10"/>
<path d="M9.55262 14.5558C9.55262 14.5558 9.85056 14.8147 10.9001 14.7525L10.934 15.1495C10.934 15.1495 10.2027 15.6328 9.67451 15.4844C9.42735 15.4153 9.33594 15.1737 9.33594 15.1737L9.37995 14.9251L9.54924 14.5592L9.55262 14.5558Z" fill="#FFF59C"/>
<path d="M14.2347 10.7721C14.5631 10.9447 14.0756 11.9113 13.7472 11.7387C13.4188 11.5661 13.9063 10.5995 14.2347 10.7721Z" fill="#005231"/>
<path d="M14.4788 10.9551C14.4788 10.9551 14.8479 9.88492 14.103 9.58803C13.3582 9.2877 12.725 9.63636 12.7013 10.1473L12.6776 10.168C12.6573 10.1853 12.6472 10.2163 12.6505 10.2439L12.725 10.962C12.7318 11.0069 12.7453 11.0448 12.7792 11.0794L12.8198 11.1208C12.8198 11.1208 12.9282 11.6282 13.304 11.6213C14.0116 11.6075 14.4822 10.9585 14.4822 10.9585L14.4788 10.9551Z" fill="#005231"/>
<path d="M14.092 10.9033C13.767 11.1277 13.2558 11.3659 12.819 11.1277V11.1208L12.775 11.0794C12.7445 11.0449 12.7242 11.0069 12.7175 10.962L12.6464 10.244C12.643 10.2198 12.6497 10.1922 12.6667 10.1749C12.6802 10.2198 12.7615 10.2888 13.1813 10.2958C13.5402 10.2992 13.9261 10.2716 14.1767 10.2474C14.2004 10.3821 14.2275 10.6824 14.092 10.9033Z" fill="#048C55"/>
<path d="M14.4173 10.6237C14.3936 10.6582 14.2751 10.779 14.0923 10.9033C14.2311 10.6824 14.1972 10.3855 14.1735 10.2474C14.3428 10.2301 14.4546 10.2163 14.4546 10.2163C14.4546 10.2163 14.4816 10.5236 14.4139 10.6237H14.4173Z" fill="#005231"/>
<path d="M14.3874 10.2855C14.4415 10.2889 14.4314 10.4546 14.3772 10.4512C14.323 10.4477 14.3332 10.282 14.3874 10.2855Z" fill="#005231"/>
<path d="M10.1934 13.6685L10.3491 13.1644C10.5252 12.6535 10.8976 12.4947 11.6086 12.6742L12.4347 12.9987L11.4393 13.8273L10.1934 13.665V13.6685Z" fill="#005231"/>
<path d="M14.726 13.9792L13.4936 13.6858L13.436 13.886L14.6583 14.1933C14.7057 14.2036 14.7497 14.1794 14.7598 14.138L14.7768 14.0586C14.7835 14.0241 14.7598 13.9896 14.726 13.9827V13.9792Z" fill="#005231"/>
<path d="M15.105 12.1978C15.105 12.1978 15.149 12.6155 14.8545 13.2334C14.5599 13.8514 14.4821 13.7616 14.4821 13.7616L14.4347 13.8962L14.2654 13.8859L14.1977 14.093L13.9708 14.0343L13.9573 13.7823L13.8456 13.9342L13.8252 14.0481L13.7101 14.1241L13.6492 14.0999L13.6695 13.986L13.5815 14.0274L13.5747 13.7858L13.7203 13.5165L14.0826 13.5614L14.3974 12.8192L14.4516 12.3255L15.1016 12.1978H15.105Z" fill="#005231"/>
<path d="M14.4484 12.3808C14.4484 12.3808 14.7599 12.2151 15.1594 12.3083L15.1391 11.68L14.313 11.8353L14.4518 12.3739L14.4484 12.3808Z" fill="#005231"/>
<path d="M15.1049 12.3014L15.0981 12.3981L15.1997 12.3325C15.1997 12.3325 15.176 12.3152 15.1049 12.3014Z" fill="#003F2B"/>
<path d="M10.4447 14.5417C10.6682 14.4904 10.8076 14.2676 10.7563 14.0442C10.7049 13.8208 10.4822 13.6813 10.2587 13.7327C10.0353 13.784 9.89584 14.0068 9.9472 14.2302C9.99856 14.4536 10.2213 14.5931 10.4447 14.5417Z" fill="#005231" stroke="#005231" stroke-width="0.0534392"/>
<path d="M10.7369 14.2913L10.7469 14.2665L10.722 14.2566C10.636 14.2222 10.5965 14.1815 10.5786 14.1419C10.5603 14.1014 10.5621 14.0569 10.5698 14.009C10.5721 13.9946 10.5747 13.9814 10.5773 13.968C10.5792 13.9582 10.5812 13.9484 10.583 13.9379C10.5871 13.9147 10.5905 13.8907 10.5896 13.8678C10.5888 13.8447 10.5837 13.8213 10.5698 13.8004C10.5557 13.7794 10.5345 13.7633 10.5058 13.7518C10.477 13.7403 10.4505 13.7373 10.4259 13.7428C10.4014 13.7484 10.3815 13.7617 10.365 13.7779C10.3486 13.7939 10.3345 13.8136 10.3214 13.8333C10.3155 13.8421 10.3101 13.8506 10.3048 13.8589C10.2974 13.8704 10.2901 13.8818 10.2819 13.8938C10.2545 13.9338 10.2251 13.9673 10.1839 13.984C10.1436 14.0003 10.0869 14.0025 10.0009 13.9681L9.9761 13.9581L9.96617 13.9829C9.88101 14.1958 9.98451 14.4374 10.1973 14.5225C10.4102 14.6077 10.6518 14.5042 10.7369 14.2913Z" fill="#005231" stroke="#005231" stroke-width="0.0534392"/>
</svg>
